<svg id="Komponente_21_2" data-name="Komponente 21 – 2" xmlns="http://www.w3.org/2000/svg" width="86.086" height="20.233" viewBox="0 0 86.086 20.233">
  <path id="Vereinigungsmenge_1" data-name="Vereinigungsmenge 1" d="M3.323,4.726q.8-.009,1.6-.022Q6.562,12.42,8.2,20.121q-1.019.027-2.037.048L5.588,17.16q-1.513.028-3.026.042l-.583,3.024q-.989.007-1.978.007Q1.661,12.489,3.323,4.726Zm.415,5.828q-.218,1.432-.514,3.04l-.376,1.99q1.221-.012,2.443-.034l-.455-2.46q-.455-2.51-.742-5.365Q3.956,9.122,3.738,10.554Zm9.718-6.1q.959-.039,1.919-.082,1.024,3.043,2.047,6.082a54.954,54.954,0,0,1,1.572,5.507q-.247-1.782-.366-3.231T18.51,10V4.222q1.034-.054,2.067-.112V19.6q-.964.054-1.928.1-1.152-3.426-2.3-6.857-.317-.958-.6-1.968t-.519-2.123q-.02-.139-.064-.338t-.1-.457q.03.26.049.444t.03.315l.109,1.57.109,1.911q.01.16.015.391t0,.521l.109,6.746q-1.014.046-2.027.087Zm13.525-.74q2.734-.182,5.469-.384V5.1q-1.706.125-3.412.244v4.905q1.513-.105,3.026-.215V11.8q-1.513.11-3.026.215V17.3q1.706-.118,3.412-.244V18.82q-2.734.2-5.469.384Zm10.262-.745,1.988-.154,1.038,7.111.168,1.05q.119.854.178,1.561l.109,1.305a1.792,1.792,0,0,1,.02.179q.01.13.03.329l.049-.505q.119-1.323.252-2.437t.292-2.059l1.1-6.787,1.582-.125,1.029,6.428q.227,1.426.381,2.648t.252,2.337q.1-1.191.222-2.3t.262-2.187l.148-1.045.88-6.128,1.968-.156-2.7,15.7-1.6.127-1.078-6.6q-.01-.039-.049-.327t-.119-.823l-.208-1.528q-.02-.179-.064-.537t-.094-.905l-.049-.638q-.02.232-.04.4t-.03.283q-.05.666-.084,1.035t-.045.45l-.208,1.5-.109.811q-.04.294-.059.366l-1.118,6.779-1.652.13Zm17.2-1.35,2.532-.19a6.114,6.114,0,0,1,1.948.119,2.8,2.8,0,0,1,1.306.8,5.193,5.193,0,0,1,1.226,2.422,18.759,18.759,0,0,1,.366,4.258,17.99,17.99,0,0,1-.405,4.2,5.007,5.007,0,0,1-1.305,2.448,6.424,6.424,0,0,1-4.005,1.3l-1.661.125ZM56.761,3.2l-.257.019V15.129a2.827,2.827,0,0,0,2.512-1.337,10.625,10.625,0,0,0,.653-4.53,12.814,12.814,0,0,0-.623-4.881A2.038,2.038,0,0,0,57.04,3.193Q56.9,3.193,56.761,3.2ZM69.98.58l1.6-.086q1.637,7.659,3.273,15.329-1.019.045-2.037.1l-.574-2.991q-1.513.076-3.026.162l-.584,3.053q-.989.057-1.978.118Q68.318,8.415,69.98.58Zm.415,5.81q-.218,1.441-.514,3.063L69.5,11.459q1.221-.068,2.443-.131l-.455-2.444q-.455-2.494-.742-5.337Q70.612,4.949,70.395,6.39ZM81.369,8.925Q79.776,4.556,78.184.2,79.272.161,80.36.128l1.009,3.341q.049.149.1.328t.119.388a23.92,23.92,0,0,1,.771,3.049q.178-1.248.3-1.743L82.971,4.1l.119-.544L83.94.036Q85.013.015,86.086,0q-1.33,4.432-2.66,8.874v6.661q-1.029.022-2.057.051Z" fill="#fff"/>
</svg>
