<svg id="Brand_Mark" data-name="Brand Mark" xmlns="http://www.w3.org/2000/svg" width="200" height="116.78" viewBox="0 0 200 116.78">
  <path id="Pfad_4" data-name="Pfad 4" d="M2656.794,7644.061v70.27h-200v-70.27H2467.6v-29.73h56.1c1.2,0,2.123-.935,3.1-1.925.3-.3.612-.621.933-.908a10.623,10.623,0,0,1,6.624-2.556v-1.908a.811.811,0,0,1,.811-.811h6.457a.54.54,0,0,0,.54-.54c0-1.29-1.917-1.966-2.089-2.024l-.036-.011a.811.811,0,0,1-.574-.848h0a.813.813,0,0,1,1.038-.706l.056.018a7.314,7.314,0,0,0,6.772-1.44.815.815,0,0,1,.076-.057,14.327,14.327,0,0,1,17.7-.009.965.965,0,0,1,.09.066,7.314,7.314,0,0,0,6.772,1.44l.055-.018a.812.812,0,0,1,.465,1.555l-.037.011c-.172.058-2.088.734-2.088,2.024a.54.54,0,0,0,.54.54h7.51a.811.811,0,0,1,.811.811v1.908a10.627,10.627,0,0,1,6.624,2.556c.321.287.632.6.933.908.975.99,1.9,1.925,3.1,1.925h56.1v29.73Zm-140.54-5.405h37.838v-16.217h-37.838Zm81.081-16.217H2559.5v16.217h37.838Zm40.54,0H2602.74v16.217h35.135Zm-162.162,16.217h35.135v-16.217h-35.135Zm124.325,16.216H2562.2v43.243h37.838Zm-86.487,43.243h37.838v-43.243h-37.838Zm-45.946,0h35.135v-43.243H2467.6Zm178.379-43.243h-35.136v48.649h35.136Z" transform="translate(-2456.794 -7597.551)"/>
</svg>
