<svg xmlns="http://www.w3.org/2000/svg" viewBox="0 0 492.11 430.98"><g id="bb9bd535-f6d7-4af8-9815-a7055607c430" data-name="Ebene 2"><g id="af910f9d-071b-494e-94e8-5586f5ad8f05" data-name="Ebene 1"><path d="M237.06,104.43l.66-94.5a10,10,0,0,1,10-9.93h.07a10,10,0,0,1,9.93,10.07l-.66,94.5a10,10,0,0,1-10,9.93H247A10,10,0,0,1,237.06,104.43ZM138.17,35.85a10,10,0,0,0-17.39,9.88l46.67,82.17A10,10,0,1,0,184.84,118ZM104.5,255.05a10,10,0,0,0,.07-20l-94.5-.67a10,10,0,1,0-.14,20l94.5.67Zm377.68-17.33-94.5-.66a10,10,0,1,0-.14,20l94.5.66h.07a10,10,0,0,0,.07-20ZM129,165.78,47.52,118A10,10,0,0,0,37.4,135.21L118.9,183a9.88,9.88,0,0,0,5,1.38A10,10,0,0,0,129,165.78Zm231.43,15.3a10,10,0,0,0,13.64,3.76l82.17-46.67a10,10,0,0,0-9.88-17.39l-82.17,46.67A10,10,0,0,0,360.45,181.08ZM118.11,305.42l-41,22.84a10,10,0,1,0,9.73,17.47l41-22.84a10,10,0,0,0-9.73-17.47Zm295.81,25.22-40.78-23.42a10,10,0,1,0-10,17.34L404,348a10,10,0,1,0,10-17.34ZM370.59,33.84A10,10,0,0,0,356.9,37.4l-47.83,81.5A10,10,0,1,0,326.32,129l47.83-81.5A10,10,0,0,0,370.59,33.84ZM220.75,332.06l-22.95-.16,39.81-177.52,18.58.13,36.72,178.06-23.63-.16-6.41-34.71-35.11-.25Zm10.47-53.13,28.34.2-5.08-28.36q-5.07-28.94-8.17-61.78-1.73,16-4.36,32.38t-6.21,34.79ZM292.54,411h-92a10,10,0,1,0,0,20h92a10,10,0,0,0,0-20Z" style="fill:#fff"/></g></g></svg>