<svg id="IC-Instagram" xmlns="http://www.w3.org/2000/svg" width="33" height="33" viewBox="0 0 33 33">
  <path id="Pfad_10" data-name="Pfad 10" d="M112.414,17.759h-15a9.01,9.01,0,0,0-9,9v15a9.01,9.01,0,0,0,9,9h15a9.01,9.01,0,0,0,9-9v-15A9.01,9.01,0,0,0,112.414,17.759Zm6,24a6.006,6.006,0,0,1-6,6h-15a6.006,6.006,0,0,1-6-6v-15a6.006,6.006,0,0,1,6-6h15a6.006,6.006,0,0,1,6,6ZM112.4,33.094a7.512,7.512,0,1,0-6.319,8.518,7.455,7.455,0,0,0,6.319-8.518Zm-6.758,5.552a4.5,4.5,0,1,1-1.321-8.9,4.5,4.5,0,0,1,5.113,3.791A4.509,4.509,0,0,1,105.639,38.646Zm8.991-12.93a1.578,1.578,0,0,1,.03.29,1.6,1.6,0,0,1-.03.3,1,1,0,0,1-.08.281c-.04.089-.09.17-.14.259a1.4,1.4,0,0,1-.19.221,1.5,1.5,0,0,1-1.06.44,1.459,1.459,0,0,1-.29-.02,1.669,1.669,0,0,1-.54-.23,1.469,1.469,0,0,1-.23-.19,1.282,1.282,0,0,1-.18-.221,1.5,1.5,0,0,1-.14-.259,1.639,1.639,0,0,1-.091-.281,1.6,1.6,0,0,1-.029-.3,1.512,1.512,0,0,1,.44-1.061,1.35,1.35,0,0,1,.23-.18,1.3,1.3,0,0,1,.26-.14,1.367,1.367,0,0,1,.28-.09,1.465,1.465,0,0,1,.59,0,1.624,1.624,0,0,1,.28.09,1.653,1.653,0,0,1,.26.14,1.324,1.324,0,0,1,.22.18,1.415,1.415,0,0,1,.19.23,2.227,2.227,0,0,1,.14.26A.907.907,0,0,1,114.63,25.716Z" transform="translate(-88.414 -17.759)"/>
</svg>
