<svg xmlns="http://www.w3.org/2000/svg" width="24" height="36" viewBox="0 0 24 36">
  <g id="IC-Ticket" transform="translate(0 0)">
    <path id="Icon_awesome-ticket-alt" data-name="Icon awesome-ticket-alt" d="M8,10.5H28v12H8Zm25,6a3,3,0,0,0,3,3v6a3,3,0,0,1-3,3H3a3,3,0,0,1-3-3v-6a3,3,0,0,0,0-6v-6a3,3,0,0,1,3-3H33a3,3,0,0,1,3,3v6A3,3,0,0,0,33,16.5ZM30,10a1.5,1.5,0,0,0-1.5-1.5H7.5A1.5,1.5,0,0,0,6,10V23a1.5,1.5,0,0,0,1.5,1.5h21A1.5,1.5,0,0,0,30,23Z" transform="translate(-4.5 36) rotate(-90)"/>
  </g>
</svg>
