<svg id="Logo_A" data-name="Logo A" xmlns="http://www.w3.org/2000/svg" width="200" height="158.347" viewBox="0 0 200 158.347">
  <path id="Pfad_1" data-name="Pfad 1" d="M2476.594,7476.653h5.516l-5.186,19.285H2471.8l-2.373-9.531-2.334,9.531h-5.2l-5.1-19.285h5.589l2.207,9.492,2.422-9.492h4.905l2.388,9.628Zm12.907,11.694h8.555V7483.7H2489.5v-2.153h9.322v-4.894h-14.834v19.285h15.032v-4.9h-9.52Zm23.516-4.919H2507.5v-6.775h-5.512v19.285h5.512v-7.616h5.516v7.616h5.512v-19.285h-5.512Zm25.95,11.212.954,1.3h-6.053l-.2-.524a7.694,7.694,0,0,1-.448-2.243c-.048-.752-.121-1.481-.216-2.164a2.808,2.808,0,0,0-.61-1.564,2.214,2.214,0,0,0-1.525-.4H2527.8v6.9h-5.512v-19.285h10.334a6.518,6.518,0,0,1,2.443.442,5.792,5.792,0,0,1,1.9,1.225,5.406,5.406,0,0,1,1.222,1.819,5.794,5.794,0,0,1,.419,2.2,6.129,6.129,0,0,1-.764,3.1,4.412,4.412,0,0,1-1.174,1.321c.017.014.034.028.05.043a4.185,4.185,0,0,1,.952,1.2,5.322,5.322,0,0,1,.512,1.445,11.5,11.5,0,0,1,.2,1.437c.018.3.035.631.052,1.014.015.36.043.734.082,1.113h0a7.036,7.036,0,0,0,.177,1.007A1.821,1.821,0,0,0,2538.967,7494.64Zm-11.166-10h3.438a2.2,2.2,0,0,0,1.461-.388,1.738,1.738,0,0,0,.394-1.319,1.618,1.618,0,0,0-.388-1.252,2.241,2.241,0,0,0-1.467-.381H2527.8Zm24.731,2.448-3.55-10.435h-6.863v19.285h5.265V7487.4l2.982,8.539h4.151l2.981-8.619v8.619h5.265v-19.285h-6.874Zm25.093,1.359a3.7,3.7,0,0,1-.6,2.375,2.99,2.99,0,0,1-2.248.642,3.71,3.71,0,0,1-1.543-.256,2.078,2.078,0,0,1-.8-.615,2.032,2.032,0,0,1-.37-.881,7.165,7.165,0,0,1-.111-1.265v-11.794h-5.513v11.794c0,2.64.755,4.643,2.243,5.952a10.509,10.509,0,0,0,12.163-.009,7.49,7.49,0,0,0,2.283-5.943v-11.794h-5.512Zm14.71-.1h8.555V7483.7h-8.555v-2.153h9.322v-4.894h-14.834v19.285h15.031v-4.9h-9.519Zm23.516-4.919h-5.516v-6.775h-5.512v19.285h5.512v-7.616h5.516v7.616h5.512v-19.285h-5.512Zm14.784-6.775h-5.513v19.285h14.117v-4.9h-8.6Zm16.64,14.39v-2.7h8.555V7483.7h-8.555v-2.153h9.322v-4.894h-14.834v19.285h15.031v-4.9Zm9.519-106.546v70.27h-200V7384.5H2467.6v-29.73h56.1c1.2,0,2.123-.935,3.1-1.925.3-.306.612-.622.933-.909a10.622,10.622,0,0,1,6.624-2.555v-1.908a.811.811,0,0,1,.811-.811h6.457a.541.541,0,0,0,.54-.541c0-1.29-1.917-1.966-2.089-2.024l-.036-.011a.81.81,0,0,1-.574-.848h0a.813.813,0,0,1,1.038-.705l.056.017a7.314,7.314,0,0,0,6.772-1.44c.025-.02.05-.04.076-.057a14.327,14.327,0,0,1,17.7-.009.965.965,0,0,1,.09.066,7.314,7.314,0,0,0,6.772,1.44l.055-.017a.811.811,0,0,1,.465,1.554l-.037.011c-.172.058-2.088.734-2.088,2.024a.541.541,0,0,0,.54.541h7.51a.811.811,0,0,1,.811.811v1.908a10.626,10.626,0,0,1,6.624,2.555c.321.287.632.6.933.909.975.99,1.9,1.925,3.1,1.925h56.1v29.73Zm-140.54-5.406h37.838v-16.216h-37.838Zm81.081-16.216H2559.5v16.216h37.838Zm40.54,0H2602.74v16.216h35.135Zm-162.162,16.216h35.135v-16.216h-35.135Zm124.325,16.216H2562.2v43.244h37.838Zm-86.487,43.244h37.838v-43.244h-37.838Zm-45.946,0h35.135v-43.244H2467.6Zm178.379-43.244h-35.136v48.649h35.136Z" transform="translate(-2456.794 -7337.986)"/>
</svg>
