<svg xmlns="http://www.w3.org/2000/svg" viewBox="0 0 600 474.01"><g id="bd3e9fc9-809f-4033-b5e2-24bc73a02e51" data-name="Ebene 2"><g id="a25a87ca-4bee-4edd-800b-57eb923bc6a2" data-name="Ebene 1"><path d="M567.61,139.35V50.28H399.52c-3.6,0-6.36-2.8-9.28-5.77-.91-.92-1.84-1.86-2.8-2.72a31.8,31.8,0,0,0-19.85-7.66V28.41A2.43,2.43,0,0,0,365.16,26h-22.5A1.62,1.62,0,0,1,341,24.37c0-3.87,5.75-5.9,6.26-6.07l.11,0a2.43,2.43,0,0,0,.67-4.33,2.45,2.45,0,0,0-1.38-.43,2.24,2.24,0,0,0-.68.1l-.17.05a21.86,21.86,0,0,1-6.14.88,21.87,21.87,0,0,1-14.15-5.19,1.89,1.89,0,0,0-.27-.2,42.91,42.91,0,0,0-53,0l-.23.17a21.87,21.87,0,0,1-14.15,5.19,21.86,21.86,0,0,1-6.14-.88l-.17-.05a2.35,2.35,0,0,0-.69-.1,2.51,2.51,0,0,0-1.37.42,2.42,2.42,0,0,0-1.05,1.79h0a2.42,2.42,0,0,0,1.72,2.54l.11,0c.51.17,6.26,2.2,6.26,6.07A1.62,1.62,0,0,1,255,26H235.6a2.43,2.43,0,0,0-2.43,2.43v5.72a31.83,31.83,0,0,0-19.85,7.66c-1,.86-1.89,1.8-2.79,2.72-2.92,3-5.68,5.77-9.28,5.77H33.15v89.07H.76V349.9H600V139.35ZM178.92,74.57H292.28v48.59H178.92Zm242.93,48.59H308.48V74.57H421.85Zm121.47,0H438V74.57H543.32ZM57.45,74.57H162.72v48.59H57.45ZM430,301.31H316.58V171.74H430ZM170.82,171.74H284.19V301.31H170.82Zm-137.67,0H138.43V301.31H33.15ZM567.61,317.51H462.34V171.74H567.61ZM47.31,472.73l-9.7-39h-.16l-9.54,39H15.16L0,415.47H12.59l9.06,39h.16l9.94-39H43.54l9.78,39.45h.17l9.38-39.45H75.22l-15.4,57.26Zm78.1-57.26v10.59H95.18v12.26h27.75v9.79H95.18v14h30.87v10.59H82.59V415.47Zm23.34,0v22h23.17v-22h12.59v57.26H171.92V448H148.75v24.7H136.16V415.47Zm79.3,0a18.61,18.61,0,0,1,6.94,1.24,16,16,0,0,1,5.29,3.41,15,15,0,0,1,3.37,5,16.21,16.21,0,0,1,1.16,6.14,17.27,17.27,0,0,1-2.12,8.74,13.34,13.34,0,0,1-6.94,5.61v.16a9.68,9.68,0,0,1,3.85,2,10.92,10.92,0,0,1,2.48,3.12,14.62,14.62,0,0,1,1.41,4,36,36,0,0,1,.6,4.33c0,.91.11,2,.16,3.21s.15,2.49.28,3.77a25.45,25.45,0,0,0,.64,3.65,8.58,8.58,0,0,0,1.32,2.93H233.91a22.08,22.08,0,0,1-1.29-6.5q-.24-3.76-.72-7.22-.65-4.49-2.73-6.57t-6.81-2.09H209.77v22.38H197.18V415.47Zm-4.49,25.9c2.89,0,5.05-.64,6.5-1.92s2.16-3.37,2.16-6.26-.72-4.79-2.16-6.05-3.61-1.89-6.5-1.89H209.77v16.12Zm50.84-25.9,13.39,39.37H288l12.67-39.37h17.72v57.26H306.55V432.15h-.16l-14,40.58h-9.7l-14-40.18h-.17v40.18H256.68V415.47Zm98.71,52.88q-6.5,5.65-18,5.66-11.62,0-18-5.61t-6.38-17.33v-35.6h12.59v35.6a25.75,25.75,0,0,0,.4,4.58,8.89,8.89,0,0,0,5.25,6.77,14.57,14.57,0,0,0,6.14,1.08q6.74,0,9.3-3t2.57-9.43v-35.6H379.6v35.6Q379.6,462.71,373.11,468.35Zm61.74-52.88v10.59H404.62v12.26h27.75v9.79H404.62v14h30.87v10.59H392V415.47Zm23.34,0v22h23.17v-22H494v57.26H481.36V448H458.19v24.7H445.6V415.47Zm61,0v46.67h27.91v10.59h-40.5V415.47Zm79.38,0v10.59H568.36v12.26h27.75v9.79H568.36v14h30.88v10.59H555.77V415.47Z"/></g></g></svg>