<svg xmlns="http://www.w3.org/2000/svg" viewBox="0 0 600 188.11"><g id="f81d5155-b7c8-43eb-8d20-a401fb4740b6" data-name="Ebene 2"><g id="a9b9a0b4-bcda-463d-ba8b-b57ac6259451" data-name="Ebene 1"><path d="M375,39.08v-25H327.8c-1,0-1.78-.78-2.6-1.62-.25-.25-.51-.52-.78-.76a9,9,0,0,0-5.57-2.15V8a.68.68,0,0,0-.68-.68h-6.31a.47.47,0,0,1-.46-.46c0-1.08,1.61-1.65,1.76-1.7h0a.67.67,0,0,0,.48-.71.7.7,0,0,0-.29-.5.69.69,0,0,0-.39-.12.63.63,0,0,0-.19,0h-.05a6.17,6.17,0,0,1-1.72.25,6.15,6.15,0,0,1-4-1.46L307,2.57a12,12,0,0,0-14.87,0l-.07.05a6.11,6.11,0,0,1-4,1.46,6.29,6.29,0,0,1-1.73-.25h0a.69.69,0,0,0-.2,0,.66.66,0,0,0-.38.12.68.68,0,0,0-.3.5h0a.68.68,0,0,0,.49.71h0c.14,0,1.75.62,1.75,1.7a.46.46,0,0,1-.45.46h-5.43a.68.68,0,0,0-.68.68v1.6a9,9,0,0,0-5.57,2.15c-.27.24-.53.51-.78.76-.82.84-1.59,1.62-2.6,1.62H225.05v25H216V98.13H384v-59Zm-109-18.17h31.8V34.54h-31.8Zm68.14,13.63h-31.8V20.91h31.8Zm34.06,0H338.61V20.91h29.52ZM231.87,20.91h29.52V34.54H231.87ZM336.34,84.5h-31.8V48.17h31.8ZM263.66,48.17h31.8V84.5h-31.8Zm-38.61,0h29.53V84.5H225.05ZM375,89.05H345.42V48.17H375ZM47.37,186.83l-9.71-39H37.5l-9.56,39H15.17L0,129.5H12.61l9.07,39h.16l10-39H43.6L53.39,169h.16L63,129.5H75.31L59.9,186.83Zm78.2-57.33v10.6H95.3v12.28h27.78v9.8H95.3v14h30.91v10.6H82.7V129.5Zm23.37,0v22h23.2v-22h12.6v57.33h-12.6V162.1h-23.2v24.73H136.33V129.5Zm79.4,0a18.67,18.67,0,0,1,6.95,1.24,16.19,16.19,0,0,1,5.3,3.42,14.85,14.85,0,0,1,3.37,5,16.17,16.17,0,0,1,1.16,6.14,17.31,17.31,0,0,1-2.12,8.75,13.43,13.43,0,0,1-6.95,5.62v.16a9.61,9.61,0,0,1,3.85,2,10.7,10.7,0,0,1,2.49,3.13,14.5,14.5,0,0,1,1.41,4,35.92,35.92,0,0,1,.6,4.34c0,.91.11,2,.16,3.21s.15,2.49.28,3.77a25.34,25.34,0,0,0,.64,3.66,8.59,8.59,0,0,0,1.33,2.93H234.2a22.42,22.42,0,0,1-1.28-6.51q-.24-3.76-.72-7.22c-.43-3-1.34-5.19-2.73-6.59s-3.67-2.08-6.83-2.08H210v22.4H197.43V129.5Zm-4.49,25.93c2.89,0,5.05-.64,6.5-1.92s2.17-3.38,2.17-6.27-.73-4.8-2.17-6.06-3.61-1.88-6.5-1.88H210v16.13Zm50.9-25.93,13.41,39.42h.16L301,129.5h17.75v57.33H306.94V146.2h-.16l-14,40.63H283L269,146.6h-.16v40.23H257V129.5Zm98.83,52.95q-6.49,5.66-18,5.66-11.64,0-18-5.62t-6.38-17.34V129.5H343.8v35.65a25.83,25.83,0,0,0,.4,4.58,9.41,9.41,0,0,0,1.68,4,9.31,9.31,0,0,0,3.58,2.81,14.54,14.54,0,0,0,6.14,1.08q6.75,0,9.31-3c1.72-2,2.57-5.15,2.57-9.43V129.5h12.61v35.65Q380.09,176.79,373.58,182.45Zm61.83-52.95v10.6H405.14v12.28h27.78v9.8H405.14v14h30.91v10.6H392.53V129.5Zm23.36,0v22H482v-22h12.6v57.33H482V162.1H458.77v24.73h-12.6V129.5Zm61.1,0v46.73h27.94v10.6H507.27V129.5Zm79.49,0v10.6H569.09v12.28h27.78v9.8H569.09v14H600v10.6H556.48V129.5Z"/></g></g></svg>