<svg xmlns="http://www.w3.org/2000/svg" viewBox="0 0 491.13 60.35"><g id="b1197531-5d15-4b94-9817-7dd60fef0040" data-name="Ebene 2"><g id="ad7b6a5f-e6e2-4e7f-a56a-b904b0935848" data-name="Ebene 1"><path d="M97.77,24V8.67h-29c-.63,0-1.1-.48-1.6-1-.16-.16-.32-.32-.49-.47a5.41,5.41,0,0,0-3.42-1.32v-1a.42.42,0,0,0-.42-.42H59a.28.28,0,0,1-.28-.28c0-.66,1-1,1.08-1h0a.43.43,0,0,0,.3-.44.45.45,0,0,0-.19-.31.48.48,0,0,0-.23-.07l-.12,0h0a3.77,3.77,0,0,1-1.06.15A3.77,3.77,0,0,1,56,1.61l-.05,0a7.4,7.4,0,0,0-9.14,0l0,0a3.77,3.77,0,0,1-2.44.9,3.77,3.77,0,0,1-1.06-.15h0l-.12,0a.48.48,0,0,0-.23.07.45.45,0,0,0-.19.31h0a.43.43,0,0,0,.3.44h0c.09,0,1.08.38,1.08,1a.28.28,0,0,1-.28.28H40.5a.42.42,0,0,0-.42.42v1a5.43,5.43,0,0,0-3.42,1.32c-.16.15-.33.31-.48.47a2.46,2.46,0,0,1-1.6,1h-29V24H0V60.35H103.35V24Zm-67-11.18H50.28v8.38H30.73Zm41.9,8.38H53.07V12.86H72.63Zm21,0H75.42V12.86H93.58ZM9.78,12.86H27.93v8.38H9.78ZM74,52H54.47V29.62H74ZM29.33,29.62H48.88V52H29.33Zm-23.74,0H23.74V52H5.59ZM97.77,54.76H79.61V29.62H97.77Zm52.58,4.71-6-24.06h-.09l-5.9,24.06h-7.87l-9.36-35.35h7.78l5.59,24.06h.1l6.14-24.06H148l6,24.36h.1L160,24.12h7.63l-9.51,35.35Zm48.22-35.35v6.54H179.9v7.57H197v6H179.9v8.67H199v6.53H172.13V24.12Zm14.41,0V37.69h14.31V24.12h7.77V59.47h-7.77V44.22H213V59.47H205.2V24.12Zm49,0a11.43,11.43,0,0,1,4.29.77A9.88,9.88,0,0,1,269.5,27a9.12,9.12,0,0,1,2.07,3.1,9.86,9.86,0,0,1,.72,3.78,10.59,10.59,0,0,1-1.31,5.4,8.25,8.25,0,0,1-4.28,3.47v.1a5.78,5.78,0,0,1,2.37,1.21A6.73,6.73,0,0,1,270.61,46a9.12,9.12,0,0,1,.87,2.45,22.25,22.25,0,0,1,.37,2.67c0,.57.06,1.23.1,2s.09,1.54.17,2.33a14,14,0,0,0,.4,2.25,5.19,5.19,0,0,0,.81,1.81h-7.77a13.7,13.7,0,0,1-.79-4c-.1-1.55-.25-3-.45-4.45A7,7,0,0,0,262.64,47a5.78,5.78,0,0,0-4.21-1.29h-7.77V59.47h-7.78V24.12Zm-2.77,16a5.84,5.84,0,0,0,4-1.19,4.93,4.93,0,0,0,1.34-3.86,4.74,4.74,0,0,0-1.34-3.74,6,6,0,0,0-4-1.16h-8.51v10Zm31.39-16,8.27,24.31h.1l7.82-24.31h10.94V59.47h-7.27v-25h-.1l-8.67,25h-6L287,34.67h-.1v24.8h-7.28V24.12Zm60.95,32.65q-4,3.49-11.09,3.49T329.3,56.8q-3.93-3.46-3.93-10.7v-22h7.77v22a15.68,15.68,0,0,0,.25,2.83,5.67,5.67,0,0,0,1,2.45,5.78,5.78,0,0,0,2.2,1.73,8.91,8.91,0,0,0,3.79.67c2.77,0,4.69-.62,5.74-1.86s1.59-3.18,1.59-5.82v-22h7.77v22Q355.52,53.29,351.51,56.77Zm38.13-32.65v6.54H371v7.57H388.1v6H371v8.67H390v6.53H363.2V24.12Zm14.4,0V37.69h14.31V24.12h7.78V59.47h-7.78V44.22H404V59.47h-7.77V24.12Zm37.68,0V52.94H459v6.53H434V24.12Zm49,0v6.54H472.07v7.57H489.2v6H472.07v8.67h19.06v6.53H464.3V24.12Z" style="fill:#fff"/></g></g></svg>